# xmcd CD database file
#
# Track frame offsets:
#	150
#	9999
#	19077
#	27437
#	35614
#	50808
#	60160
#	69874
#	79380
#	90830
#	104524
#	114193
#
# Disc length: 1722 seconds
#
# Revision: 0
# Processed by: cddbd v1.5.2PL0 Copyright (c) Steve Scherf et al.
# Submitted via: CDex 1.70beta2
#
DISCID=8906b80c
DTITLE=McGivern, Mickey, and The Mustangs - Cdn. - OVM - Pembroje, ON - Hard Times
DYEAR=2006
DGENRE=Country
TTITLE0=Hard Times
TTITLE1=Going Down the Road
TTITLE2=King On the Road
TTITLE3=This Must Be the Bottom
TTITLE4=I've Got Someone To Kill
TTITLE5=Runnin' Bills
TTITLE6=I Don't Want to Be Me
TTITLE7=I'm No the Man I Used to Be
TTITLE8=We're the Kind of People
TTITLE9=Sing Me Back Home
TTITLE10=Wine
TTITLE11=My Elusive Dreams
EXTD=YEAR: 2006
EXTT0=
EXTT1=
EXTT2=
EXTT3=
EXTT4=
EXTT5=
EXTT6=
EXTT7=
EXTT8=
EXTT9=
EXTT10=
EXTT11=
PLAYORDER=
